<?xml version="1.0" standalone="no"?>
<svg>
<font id="Fuente-Zelda" horiz-adv-x="27" >
<font-face units-per-em="100" ascent="80" descent="-20" />
<glyph unicode="A" horiz-adv-x="56" d="M8.82942 66.6522 Q26.77835 65.80644 42.8478 67.02809 C40.81171 65.77511 39.79367 65.14862 36.73953 63.26915 L47.26456 10.92594 L52.52707 5.00562 L38.24311 4.53575 L43.12972 9.79826 L35.89377 25.30388 L18.41471 23.89428 L13.1522 9.3284 L21.60981 4.91164 L3.9428 5.19356 L8.45352 9.23442 L21.23391 60.82584 L8.82942 66.6522 zM26.68437 70.41113 L43.31767 67.12206 L8.82942 66.84014 L26.68437 70.41113 zM27.81205 59.13432 L20.38815 38.83606 L26.49642 33.3856 L33.07457 39.024 L27.81205 59.13432 zM10.05107 65.05465 L20.29418 60.54392 L16.62921 46.72983 L19.54239 59.98008 L10.05107 65.05465 zM43.2237 66.2763 L39.08887 62.61134 L42.37794 41.37334 L38.14913 62.89326 L43.2237 66.2763 zM32.04086 39.11798 L26.30848 34.60725 L21.70378 39.21195 L26.12053 35.35904 L32.04086 39.11798 zM27.71808 57.25485 L31.85291 39.11798 L27.53013 55.6573 L21.79775 39.3999 L27.71808 57.25485 zM33.82635 24.83401 L32.88662 22.01481 L20.48212 23.70633 L33.82635 24.83401 z" />
<glyph unicode="B" horiz-adv-x="56" d="M6.762 67.21604 L40.96834 67.12206 Q47.35853 61.29571 49.70787 52.74413 Q47.4525 45.60215 40.31052 41.46731 C33.85768 39.96374 30.63126 39.21195 20.95199 36.95659 L19.63636 36.95659 L19.82431 36.95659 L40.78039 33.3856 Q48.29826 28.40501 51.21144 18.72574 Q50.36568 9.42237 44.91522 4.53575 C32.73 4.44178 26.63738 4.39479 8.35955 4.25383 L10.99081 12.1476 L10.61491 59.22829 L6.762 67.21604 zM20.48212 54.05975 Q21.60981 49.26711 16.81716 45.88407 C24.11576 46.57321 27.76507 46.91778 38.71297 47.95148 Q41.15628 50.77068 41.90807 54.90552 Q40.49847 58.66445 36.45761 61.76558 C29.19033 62.20412 25.55669 62.42339 14.65577 63.08121 Q19.63636 59.51021 20.48212 54.05975 zM25.08682 22.48468 Q25.1808 19.28958 25.08682 14.30899 C23.3953 12.46085 22.54954 11.53677 20.01226 8.76456 L40.59244 10.45608 Q44.6333 13.5572 44.6333 18.72574 Q43.2237 25.20991 40.78039 26.71348 C33.79503 27.1207 30.30235 27.32431 19.82431 27.93514 Q23.30133 25.02196 25.08682 22.48468 zM14.09193 39.77579 L16.25332 34.51328 L13.43412 29.72063 L16.34729 27.08938 L20.5761 32.91573 L16.62921 37.80235 L21.70378 42.59499 L14.09193 39.77579 z" />
<glyph unicode="C" horiz-adv-x="56" d="M38.52503 47.95148 L38.24311 62.98723 L13.24617 62.14147 L6.66803 34.70123 L12.11849 12.05363 L36.26966 11.48979 L34.76609 25.30388 L39.37079 26.71348 L39.46476 10.3621 L46.23085 7.26098 L9.01736 7.35495 L3.19101 34.04341 L9.58121 67.21604 L47.92237 66.6522 L43.12972 63.36313 L43.41164 49.83095 L38.52503 47.95148 zM39.37079 64.8667 L40.87436 52.8381 L41.34423 64.96067 L39.37079 64.8667 zM37.96118 11.20787 L37.86721 24.64607 L36.17569 23.80031 L37.96118 11.20787 zM39.27681 49.36108 L42.65986 50.39479 L39.46476 50.11287 L39.27681 49.36108 zM40.96834 47.19969 L36.36364 32.16394 " />
<glyph unicode="D" horiz-adv-x="56" d="M39.27681 67.21604 Q69.25434 36.29877 40.40449 1.81052 C28.56384 2.34304 22.64351 2.6093 4.88253 3.40807 L11.08478 9.04648 Q18.13279 34.41931 11.17875 58.66445 C9.26796 60.88849 8.31256 62.00051 5.44637 65.33657 L39.27681 67.21604 zM22.45557 51.61645 Q28.28192 37.33248 21.13994 16.84627 C19.79299 13.99574 19.11951 12.57048 17.09908 8.29469 L40.40449 17.22217 Q49.238 34.13739 39.74668 50.58274 C32.32278 53.96578 28.61082 55.65731 17.47497 60.73187 L22.45557 51.61645 zM20.2002 35.82891 L16.53524 17.87998 L23.01941 35.82891 L16.72319 54.90552 L20.2002 35.82891 zM37.58529 64.58478 L27.24821 63.55107 L41.25026 60.91982 L37.58529 64.58478 zM29.97344 5.66343 L38.43105 4.81767 L40.12257 11.01992 L29.97344 5.66343 zM45.94893 49.83095 L51.49336 36.48672 L47.64045 21.45097 " />
<glyph unicode="E" horiz-adv-x="56" d="M42.82329 58.97498 L42.82329 40.0332 L37.07865 54.70531 L20 54.47242 L20.07763 39.41216 L25.667 38.17007 L29.16036 41.66343 L32.57609 36.15169 L29.62615 31.5715 L25.74463 35.9188 L20.15526 34.98723 L20.15526 21.24668 L37.93258 19.22829 L43.21144 29.78601 L43.44433 15.50204 L8.89887 15.89019 L11.46067 19.61645 L11.77119 54.23953 L8.04494 58.2763 L42.82329 58.97498 zM38.52503 56.78498 L40.78039 50.0189 L41.06231 56.69101 L38.52503 56.78498 zM39.84065 17.31614 L42.28396 16.84627 L42.09602 24.08223 L39.84065 17.31614 zM14.5618 20.69918 L11.74259 17.22217 L22.26762 17.03422 L14.5618 20.69918 zM11.08478 56.87896 L15.9714 51.14658 L17.381 56.97293 L11.08478 56.87896 z" />
<glyph unicode="F" horiz-adv-x="56" d="M3.84883 68.62564 L50.45965 68.62564 L50.17773 54.99949 L46.88866 64.67875 L10.61491 64.58478 L10.61491 44.38049 L34.76609 42.59499 L43.31767 48.2334 L43.12972 33.29162 L34.76609 40.24566 L10.61491 39.49387 L10.23902 8.76456 L25.65066 8.48264 L9.76915 3.40807 L5.44637 3.40807 L8.26558 8.38866 L4.78856 8.38866 L3.84883 68.62564 zM6.94995 63.73902 L6.29213 10.3621 L7.70174 41.09142 L6.94995 63.73902 zM8.1716 4.53575 L9.86313 6.22727 L14.5618 7.35495 L9.76915 7.35495 L8.1716 4.53575 zM41.06231 37.14454 L43.2237 38.46016 L43.2237 43.15884 L41.90807 45.0383 L36.26966 41.18539 L41.06231 37.14454 zM11.3667 38.93003 L22.36159 39.024 L12.11849 38.17824 L11.3667 38.93003 zM11.93054 41.37334 L27.34219 41.56129 L11.93054 42.12513 L11.93054 41.37334 z" />
<glyph unicode="G" horiz-adv-x="56" d="M38.33708 58.94637 L15.87743 58.94637 L8.26558 53.40194 L15.03166 34.88917 L7.88968 17.31614 L17.00511 11.39581 L41.15628 11.30184 L40.49847 26.90143 L21.89173 31.69408 L50.45965 31.31818 L44.91522 27.18335 L45.19714 6.97906 L15.12564 7.16701 L3.9428 15.24872 L4.41267 54.81154 L15.21961 62.79928 L44.91522 62.32942 L45.10317 49.45506 L38.33708 58.94637 zM7.51379 36.95659 L5.72829 35.17109 L7.70174 32.63381 L6.762 24.55209 L11.93054 34.98315 L6.85598 47.29367 L7.51379 36.95659 zM22.17365 33.29162 L49.98979 33.10368 L48.95608 32.16394 L23.67722 32.63381 L22.17365 33.29162 zM10.23902 53.21399 L16.15935 57.91267 L38.14913 57.81869 L16.34729 57.25485 L10.23902 53.21399 z" />
<glyph unicode="H" horiz-adv-x="56" d="M2.25128 67.31001 Q11.83657 66.93412 20.29418 67.21604 C18.16411 66.15101 17.09908 65.61849 13.90398 64.02094 L14.5618 41.37334 Q26.77835 41.09142 38.33708 41.27937 C38.14913 48.89122 38.05516 52.69714 37.77324 64.11491 L29.69152 67.40398 Q40.21655 67.40398 49.05005 67.77988 C46.60674 66.49558 45.38509 65.85343 41.72012 63.92697 L42.8478 10.45608 L52.80899 5.09959 L32.69867 5.38151 L40.21655 10.55005 L38.43105 36.95659 Q25.74464 37.6144 14.09193 37.33248 C14.21723 28.31103 14.27987 23.8003 14.46782 10.26813 L24.52298 5.85138 L2.43922 6.1333 L10.42697 10.26813 L9.39326 63.92697 L2.25128 67.31001 zM11.83657 54.90552 L11.08478 38.93003 L12.40041 22.48468 L12.58836 38.93003 L11.83657 54.90552 zM40.21655 54.90552 L39.65271 38.83606 L15.12564 38.83606 L39.74668 38.08427 L41.15628 24.36415 " />
<glyph unicode="I" horiz-adv-x="56" d="M3.9428 65.99438 L48.29826 66.55822 L44.82125 62.98723 L27.90603 62.61134 L30.91318 39.58784 L28 10.45608 L45.29111 10.45608 L51.96323 5.38151 L5.54035 5.09959 L11.55465 10.08018 L24.71093 10.45608 L21.89173 39.30592 L24.24106 62.61134 L7.79571 62.70531 L3.9428 65.99438 zM25.74464 58.94637 L24.42901 47.85751 L25.83861 40.90347 L27.34219 48.42135 L25.74464 58.94637 zM25.93258 39.96374 L24.24106 37.33248 L25.74464 35.07712 L27.81205 37.52043 L25.93258 39.96374 zM25.74464 33.85546 L24.42901 24.08223 L25.83861 12.1476 L27.34219 24.36415 L25.74464 33.85546 z" />
<glyph unicode="J" horiz-adv-x="56" d="M52.15117 42.31307 L50.45965 9.79826 L54.12462 6.88509 L13.52809 6.32125 L12.21246 19.75945 L13.99796 26.33759 L3.75485 30.94229 L21.23391 30.75434 L16.81716 26.24362 L21.04597 9.89224 L42.47191 11.67773 L44.35138 62.51736 L9.20531 62.14147 L5.07048 68.15577 L53.4668 67.96782 L52.15117 42.31307 zM25.93258 32.53984 L18.50868 26.80746 L24.52298 31.78805 L3.75485 31.69408 L25.93258 32.53984 zM41.06231 20.9811 L41.25026 12.80541 L34.67211 12.24157 L39.84065 13.93309 L41.06231 20.9811 zM38.33708 61.48366 L43.12972 61.85955 L42.56588 59.32227 L43.59959 58.10061 L41.90807 58.00664 L42.09602 60.6379 L38.33708 61.48366 z" />
<glyph unicode="K" horiz-adv-x="56" d="M3.56691 68.53166 L22.07967 68.43769 L14.5618 63.92697 L14.37385 42.78294 L38.71297 56.40909 L36.55158 60.73187 L45.85495 64.02094 L40.96834 54.6236 L15.21961 41.09142 L15.03166 34.70123 L41.4382 14.68488 L51.86925 19.10163 L49.14402 10.738 L40.40449 9.23442 L38.90092 13.36925 L15.31359 30.28447 L14.37385 6.88509 L28.09397 6.69714 L21.42186 2.75026 L9.29928 2.56231 L10.42697 30.66037 L3.56691 68.53166 zM12.02451 41.93718 L9.76915 63.26915 L13.52809 66.2763 L6.48008 65.80644 L12.02451 41.93718 zM11.27273 7.44893 L11.27273 3.78396 L20.95199 3.78396 L22.36159 5.00562 L11.93054 4.3478 L11.27273 7.44893 zM16.72319 35.54699 L41.72012 16.65832 L41.06231 16.09448 L15.9714 35.17109 L16.34729 40.33963 L16.72319 35.54699 z" />
<glyph unicode="L" horiz-adv-x="56" d="M22.26762 69.4714 L15.87743 61.76558 L16.06537 12.1476 L42.00204 8.29469 L52.43309 22.3907 L50.36568 3.87794 L3.37896 3.87794 L7.70174 11.01992 L7.79571 65.80644 L2.43922 69.65935 L22.26762 69.4714 zM11.55465 10.738 L10.42697 8.10674 L24.99285 8.20072 L13.90398 10.26813 L13.34014 61.20174 L15.78345 66.46425 L9.58121 66.55822 L11.83657 63.4571 L11.55465 10.738 z" />
<glyph unicode="M" horiz-adv-x="56" d="M17.75689 68.62564 L11.08478 64.77273 L23.20735 39.68182 L28 39.3999 L43.50562 64.11491 L35.4239 68.81359 L52.80899 69.00153 L47.17058 64.30286 L47.92237 4.3478 L53.65475 1.99847 L41.06231 2.28039 L44.16343 4.3478 L42.37794 43.34678 L25.08682 30.1905 L12.11849 42.68897 L12.02451 5.47549 L19.91828 2.84423 L4.60061 3.12615 L6.762 5.38151 L1.78141 68.71961 L17.75689 68.62564 zM6.94995 64.67875 L6.01021 50.86466 L8.26558 58.10061 L11.3667 52.65015 L6.94995 64.67875 zM8.26558 49.26711 L9.86313 51.14658 L11.08478 48.79724 L15.40756 45.88407 L8.92339 53.30797 L8.26558 49.26711 zM42.47191 55.75128 L32.32278 43.72268 L31.10112 38.64811 L34.10827 44.09857 " />
<glyph unicode="N" horiz-adv-x="56" d="M4.13075 68.53166 L20.29418 68.43769 L40.21655 30.00255 L40.49847 64.8667 L53.74872 64.96067 L46.41879 62.0475 L46.13687 5.28754 L41.4382 3.12615 L17.94484 60.44995 L14.09193 41.84321 L14.93769 8.01277 L21.70378 4.15986 L6.85598 4.7237 L9.67518 8.57661 L9.9571 60.35598 L4.13075 68.53166 zM46.88866 66.46425 L53.4668 65.71246 L40.49847 65.61849 L46.88866 66.46425 zM53.56078 63.83299 L47.73442 60.73187 L47.07661 53.68386 L46.98264 61.48366 L53.56078 63.83299 zM34.0143 44.66241 L38.80695 35.64096 L39.55873 45.22625 L39.46476 32.82176 L34.0143 44.66241 zM18.32074 53.30797 L14.46782 41.56129 L18.13279 57.81869 L18.32074 53.30797 zM17.09908 64.8667 L14.46782 59.32227 L18.7906 64.96067 L23.67722 59.41624 L19.63636 67.12206 L8.1716 66.6522 L17.09908 64.8667 zM36.8335 25.5858 L42.56588 8.85853 L44.16343 12.71144 L42.56588 11.77171 L36.8335 25.5858 zM42.65986 24.36415 L42.56588 13.36925 L43.2237 25.30388 L42.65986 24.36415 z" />
<glyph unicode="O" horiz-adv-x="56" d="M44.16343 48.98519 L44.25741 19.75945 L24.99285 6.22727 L7.1379 22.20276 L7.04392 49.17314 L24.52298 67.31001 L44.16343 48.98519 zM24.61696 61.29571 Q18.97855 55.46936 11.83657 48.42135 C12.11849 40.5589 12.25945 36.62768 12.68233 24.83401 L25.08682 11.39581 L38.99489 25.5858 L38.80695 47.29367 L24.61696 61.29571 zM24.52298 67.31001 L23.20735 63.83299 L24.71093 61.38968 L25.36874 63.92697 M41.72012 47.48161 L44.06946 48.98519 L40.68641 48.79724 L39.08887 47.38764 L41.72012 47.48161 zM40.59244 22.10878 L44.06946 20.04137 L41.90807 24.27017 L39.27681 25.5858 L40.59244 22.10878 zM12.7763 24.92799 L9.76915 24.92799 L7.1379 22.48468 L10.80286 22.29673 M26.49642 9.70429 L25.08682 11.39581 L23.7712 9.42237 L24.99285 6.41522 M6.94995 49.07916 L9.39326 48.04545 L11.74259 48.42135 L10.33299 50.30082 L6.94995 49.07916 zM24.8049 59.13432 L37.77324 47.01175 L38.43105 25.67978 L37.39734 47.01175 L24.8049 59.13432 zM24.8049 38.64811 L24.89888 12.61747 L24.24106 38.55414 L24.71093 58.8524 L24.8049 38.64811 zM20.10623 33.29162 L24.61696 38.64811 L19.35444 33.0097 L13.43412 25.49183 L20.10623 33.29162 zM31.28907 31.976 L38.24311 26.24362 L24.71093 38.64811 L31.28907 31.976 zM24.71093 38.55414 L30.91318 43.81665 L37.39734 47.19969 L31.47702 43.53473 L24.71093 38.55414 zM18.13279 43.15884 L24.52298 38.64811 L18.50868 43.44076 L12.30644 48.42135 L18.13279 43.15884 zM12.40041 48.6093 L24.61696 59.13432 L18.88458 53.40194 L12.40041 48.6093 z" />
<glyph unicode="P" horiz-adv-x="56" d="M3.75485 66.46425 L37.49132 66.37028 L49.33197 61.20174 L49.80184 38.27222 L41.06231 30.94229 L17.381 34.51328 L13.90398 6.97906 L29.03371 3.50204 L5.82227 3.50204 L11.17875 26.71348 L11.64862 43.6287 L3.75485 66.46425 zM21.23391 38.74208 L37.02145 38.08427 L44.16343 42.78294 L43.59959 58.38253 L35.98774 61.6716 L11.08478 61.76558 L21.23391 38.74208 zM40.12257 35.82891 L44.72727 36.76864 L39.74668 36.95659 L35.89377 35.17109 L40.12257 35.82891 zM40.59244 32.06997 L44.72727 36.01685 L36.45761 34.23136 L40.59244 32.06997 zM5.82227 65.05465 L7.41982 60.44995 L7.51379 63.4571 L12.40041 64.39683 L5.82227 65.05465 z" />
<glyph unicode="Q" horiz-adv-x="56" d="M24.89888 66.93412 L39.27681 64.20889 L46.32482 30.75434 L42.37794 14.9668 L51.02349 7.16701 L51.49336 4.81767 L48.67416 5.56946 L40.31052 11.86568 L28.56384 3.22012 L12.30644 6.32125 L4.50664 33.3856 L8.92339 63.55107 L24.89888 66.93412 zM24.24106 61.48366 L13.62206 57.25485 L9.58121 34.60725 L16.15935 11.67773 L26.87232 9.51634 L38.43105 19.47753 L41.06231 34.51328 L34.95403 58.47651 L24.24106 61.48366 z" />
<glyph unicode="R" horiz-adv-x="56" d="M38.05516 65.33657 L50.36568 56.87896 L50.92952 46.16599 L36.92748 33.19765 L19.35444 36.48672 L43.88151 18.1619 L48.48621 11.20787 L32.2288 11.01992 L37.58529 16.47038 L18.22676 35.73493 L17.75689 16.94025 L26.2145 10.55005 L8.1716 10.64402 L12.21246 16.3764 L11.93054 60.54392 L4.78856 66.55822 L38.05516 65.33657 zM19.07252 46.91777 L30.34934 42.2191 L39.27681 45.50817 L43.41164 52.18029 L35.70582 59.22829 L18.69663 57.25485 L19.07252 46.91777 z" />
<glyph unicode="S" horiz-adv-x="56" d="M45.47906 65.71246 L45.57303 52.8381 L38.80695 58.75843 L13.34014 56.97293 L11.27273 40.99745 L47.54648 37.70838 L51.58733 7.07303 L42.09602 3.59602 L9.48723 4.91164 L13.90398 12.99336 L41.06231 7.82482 L45.76098 15.81256 L42.8478 33.10368 L8.5475 31.22421 L3.84883 40.33963 L7.79571 64.11491 L45.47906 65.71246 zM20.2002 35.45301 L28.93973 35.82891 L31.66496 34.7952 L33.92033 35.82891 L31.66496 37.33248 L28.93973 36.11083 L20.67007 37.42646 L9.20531 38.64811 L20.2002 35.45301 z" />
<glyph unicode="T" horiz-adv-x="56" d="M2.43922 62.61134 L10.89683 67.96782 L45.57303 68.24974 L52.80899 62.0475 L41.62615 64.11491 L30.44331 65.14862 Q23.67722 39.96374 30.53728 16.00051 C33.73238 14.87283 35.32993 14.30899 40.12257 12.61747 L18.13279 12.61747 L26.77835 15.90654 Q32.6047 40.24566 25.46272 65.05465 C21.54716 64.7414 19.58938 64.58478 13.71604 64.11491 L2.43922 62.61134 z" />
<glyph unicode="U" horiz-adv-x="56" d="M3.56691 67.77988 L15.9714 67.87385 L11.74259 53.96578 L12.21246 37.42646 L22.45557 16.7523 L28.28192 13.27528 L35.70582 16.7523 L40.87436 27.84116 L42.8478 37.42646 L41.8141 54.6236 L35.14198 68.15577 L51.49336 67.87385 L48.01634 16.00051 L35.7998 3.50204 L23.67722 3.87794 L14.84372 10.92594 L10.89683 18.25587 L5.07048 41.84321 L3.56691 67.77988 zM23.7712 17.78601 L28.37589 14.9668 L34.0143 18.25587 Q40.0286 26.9954 41.53218 39.68182 C40.81172 35.67229 40.45149 33.66752 39.37079 27.65322 L34.29622 17.41011 L28.18795 14.30899 L23.30133 17.59806 L13.24617 37.52043 L23.7712 17.78601 z" />
<glyph unicode="V" horiz-adv-x="56" d="M1.49949 64.02094 L15.21961 64.67875 L10.23902 60.54392 L15.59551 30.28447 L25.93258 13.18131 L37.67926 29.81461 L42.09602 60.6379 L37.30337 64.8667 L53.09091 64.30286 L35.7998 13.18131 L26.49642 3.40807 L17.56895 12.89939 Q10.52094 35.64096 1.49949 64.02094 z" />
<glyph unicode="W" horiz-adv-x="56" d="M2.43922 56.22114 L21.51583 56.50306 L7.79571 55.09346 L15.31359 21.54494 L24.8049 31.13023 L33.45046 22.86057 L44.25741 54.43565 L32.88662 56.22114 L47.64045 55.84525 L37.2094 10.45608 L24.8049 23.89428 L13.05822 10.3621 L3.37896 54.90552 L2.43922 56.22114 zM24.8049 29.06282 L16.62921 21.16905 L24.8049 27.18335 L32.04086 21.73289 L24.8049 29.06282 z" />
<glyph unicode="X" horiz-adv-x="56" d="M2.1573 65.33657 L15.68948 65.52451 L23.20735 37.9903 L34.0143 65.33657 L48.95608 65.52451 L27.15424 34.60725 L48.67416 6.41522 L32.2288 6.32125 L40.31052 8.76456 L23.48927 33.94944 L9.39326 10.55005 L23.67722 7.16701 L3.37896 7.35495 L19.73034 34.23136 L2.1573 65.33657 zM12.96425 60.82584 L15.03166 53.30797 L18.50868 43.06486 L14.27988 63.08121 L5.91624 62.89326 L12.96425 60.82584 zM29.87947 44.56844 L37.77324 61.29571 L44.44535 63.08121 L35.32993 62.98723 L29.87947 44.56844 z" />
<glyph unicode="Y" horiz-adv-x="56" d="M15.21961 64.02094 L25.36874 39.024 L35.51788 64.67875 L49.42594 64.58478 L37.11542 62.51736 L28.75179 32.25792 L28.28192 10.55005 L42.94178 5.00562 L14.1859 5.56946 L24.99285 10.45608 L23.7712 32.35189 L4.97651 63.73902 L15.21961 64.02094 zM20.67007 41.18539 L8.35955 61.38968 L14.27988 62.32942 L7.70174 62.0475 L20.67007 41.18539 zM14.74974 57.81869 L15.31359 60.54392 Q15.87743 59.04035 12.40041 59.88611 C16.28465 52.65015 18.22677 49.03217 24.05312 38.17824 L14.74974 57.81869 z" />
<glyph unicode="Z" horiz-adv-x="56" d="M8.45352 64.11491 L0.55975 57.34883 L5.40632 68.53321 L5.44637 68.62564 L52.15117 68.53166 L16.25332 10.738 L45.29111 10.55005 L52.80899 16.00051 L49.61389 5.38151 L4.97651 5.66343 L39.74668 62.89326 L8.45352 64.11491 zM31.85291 46.72983 L26.5904 32.82176 L35.89377 44.94433 L42.47191 60.262 L31.85291 46.72983 zM25.83861 31.69408 L15.68948 20.51124 L10.33299 7.07303 L20.2002 19.47753 L25.83861 31.69408 z" />
<glyph unicode=" " horiz-adv-x="27" d="" />
<glyph unicode="t" horiz-adv-x="56" d="" />
</font>
</svg>
